<svg width="117" height="87" viewBox="0 0 117 87" fill="none" xmlns="http://www.w3.org/2000/svg">
<g clip-path="url(#clip0_19_151)">
<path d="M100.594 27.4377V19.5955C100.594 14.6433 98.5624 9.89398 94.9456 6.39227C91.3288 2.89057 86.4233 0.92334 81.3084 0.92334H35.0222C29.9072 0.92334 25.0018 2.89057 21.3849 6.39227C17.7681 9.89398 15.7362 14.6433 15.7362 19.5955V27.4377C11.3765 28.2948 7.45687 30.5848 4.6415 33.9197C1.82613 37.2546 0.288147 41.4293 0.288147 45.7364C0.288147 50.0435 1.82613 54.2182 4.6415 57.5531C7.45687 60.888 11.3765 63.178 15.7362 64.0351V79.3462C15.7362 81.3271 16.549 83.2268 17.9957 84.6275C19.4424 86.0282 21.4046 86.8151 23.4506 86.8151H92.8799C94.9259 86.8151 96.8881 86.0282 98.3348 84.6275C99.7815 83.2268 100.594 81.3271 100.594 79.3462V64.0351C104.954 63.178 108.874 60.888 111.689 57.5531C114.504 54.2182 116.042 50.0435 116.042 45.7364C116.042 41.4293 114.504 37.2546 111.689 33.9197C108.874 30.5848 104.954 28.2948 100.594 27.4377ZM35.0222 8.39218H81.3084C84.3734 8.40447 87.3093 9.58876 89.4767 11.6871C91.644 13.7855 92.8672 16.6279 92.8799 19.5955V27.4377C88.5279 28.3068 84.6179 30.6006 81.8079 33.9334C78.9979 37.2661 77.4593 41.4342 77.4512 45.7364H38.8793C38.8712 41.4342 37.3327 37.2661 34.5226 33.9334C31.7126 30.6006 27.8026 28.3068 23.4506 27.4377V19.5955C23.4633 16.6279 24.6865 13.7855 26.8538 11.6871C29.0212 9.58876 31.9571 8.40447 35.0222 8.39218ZM96.93 56.9397H96.7371C95.7141 56.9397 94.733 57.3331 94.0097 58.0335C93.2863 58.7338 92.8799 59.6837 92.8799 60.6741V79.3462H23.4506V60.6741C23.4506 60.1859 23.3505 59.7025 23.1561 59.252C22.9617 58.8015 22.6768 58.3929 22.318 58.0498C21.9592 57.7068 21.5336 57.4361 21.0659 57.2536C20.5981 57.071 20.0977 56.9802 19.5934 56.9864H19.4006C17.1226 56.9496 14.9065 56.2626 13.0301 55.0114C11.1538 53.7603 9.70062 52.0008 8.85287 49.9534C8.00512 47.906 7.80049 45.6618 8.26463 43.5023C8.72877 41.3428 9.84102 39.3639 11.462 37.8139C13.0829 36.2638 15.1404 35.2115 17.3765 34.7889C19.6126 34.3663 21.9278 34.5922 24.0318 35.4382C26.1359 36.2842 27.9351 37.7128 29.2041 39.5448C30.473 41.3768 31.1552 43.5306 31.165 45.7364V64.4085C31.165 65.3989 31.5714 66.3488 32.2947 67.0492C33.0181 67.7495 33.9992 68.1429 35.0222 68.1429C36.0451 68.1429 37.0262 67.7495 37.7496 67.0492C38.473 66.3488 38.8793 65.3989 38.8793 64.4085V53.2053H77.4512V64.4085C77.4512 65.3989 77.8576 66.3488 78.5809 67.0492C79.3043 67.7495 80.2854 68.1429 81.3084 68.1429C82.3314 68.1429 83.3125 67.7495 84.0358 67.0492C84.7592 66.3488 85.1656 65.3989 85.1656 64.4085V45.7364C85.1659 43.5286 85.84 41.3702 87.1031 39.5321C88.3663 37.6939 90.1623 36.2582 92.2655 35.405C94.3687 34.5518 96.6854 34.3193 98.9246 34.7367C101.164 35.1541 103.226 36.2027 104.852 37.7509C106.477 39.299 107.594 41.2778 108.062 43.4385C108.53 45.5993 108.329 47.8458 107.482 49.8959C106.636 51.946 105.183 53.7083 103.305 54.9615C101.428 56.2147 99.21 56.9029 96.93 56.9397Z" fill="white"/>
</g>
<defs>
<clipPath id="clip0_19_151">
<rect width="115.754" height="85.1525" fill="white" transform="translate(0.288147 0.92334)"/>
</clipPath>
</defs>
</svg>
