<svg width="286" height="276" viewBox="0 0 286 276" fill="none" xmlns="http://www.w3.org/2000/svg">
<path fill-rule="evenodd" clip-rule="evenodd" d="M257.726 37.6563H172.344V17L32 39.2399V234.181L172.344 259V228.383H257.726C260.311 228.518 262.844 227.596 264.769 225.818C266.695 224.041 267.856 221.553 268 218.899V47.1321C267.854 44.4794 266.692 41.9938 264.766 40.2183C262.841 38.4428 260.31 37.5218 257.726 37.6563ZM259.074 220.474H172.058L171.914 204.127H192.876V185.089H171.754L171.653 173.839H192.876V154.801H171.493L171.392 143.551H192.876V124.513H171.324V113.263H192.876V94.2254H171.324V82.9756H192.876V63.9375H171.324V46.6302H259.074V220.474Z" fill="#20744A"/>
<path d="M200.978 64.1611H239.614V83.1361H200.978V64.1611Z" fill="#20744A"/>
<path d="M200.978 94.3574H239.614V113.332H200.978V94.3574Z" fill="#20744A"/>
<path d="M200.978 124.554H239.614V143.529H200.978V124.554Z" fill="#20744A"/>
<path d="M200.978 154.75H239.614V173.725H200.978V154.75Z" fill="#20744A"/>
<path d="M200.978 184.946H239.614V203.921H200.978V184.946Z" fill="#20744A"/>
<path fill-rule="evenodd" clip-rule="evenodd" d="M56.7263 92.0547L75.9062 90.9938L87.9628 122.984L102.209 89.6742L121.389 88.6133L98.098 134.033L121.389 179.564L101.11 178.244L87.4177 143.537L73.7165 176.925L55.0818 175.338L76.7284 135.119L56.7263 92.0547Z" fill="white"/>
</svg>
