<svg width="37" height="31" viewBox="0 0 37 31" fill="none" xmlns="http://www.w3.org/2000/svg">
<path fill-rule="evenodd" clip-rule="evenodd" d="M34.25 0.875H2.75C2.15326 0.875 1.58097 1.11205 1.15901 1.53401C0.737053 1.95597 0.5 2.52826 0.5 3.125V27.875C0.5 28.4717 0.737053 29.044 1.15901 29.466C1.58097 29.8879 2.15326 30.125 2.75 30.125H34.25C34.8467 30.125 35.419 29.8879 35.841 29.466C36.2629 29.044 36.5 28.4717 36.5 27.875V3.125C36.5 2.52826 36.2629 1.95597 35.841 1.53401C35.419 1.11205 34.8467 0.875 34.25 0.875ZM5 25.625V5.375H32V25.625H5Z" fill="#F8F8F8"/>
<path fill-rule="evenodd" clip-rule="evenodd" d="M35.708 4.83725L19.8568 18.3372C19.448 18.6852 18.9283 18.8755 18.3915 18.8739C17.8547 18.8722 17.3362 18.6787 16.9295 18.3282L1.28078 4.82825C-0.298724 3.467 0.664276 0.875 2.75003 0.875H34.25C36.3425 0.875 37.301 3.4805 35.708 4.83725ZM8.80253 5.375L18.41 13.6617L28.1345 5.375H8.80253Z" fill="#F8F8F8"/>
</svg>
