<svg width="135" height="82" viewBox="0 0 135 82" fill="none" xmlns="http://www.w3.org/2000/svg">
<path d="M107.792 41.9936C109.679 40.1117 111.175 37.8754 112.195 35.4133C113.215 32.9511 113.739 30.3117 113.735 27.6467C113.735 16.4414 104.65 7.35645 93.445 7.35645C82.2397 7.35645 73.1547 16.4414 73.1547 27.6467C73.1547 33.2502 75.4255 38.3228 79.0981 41.9936" stroke="white" stroke-width="4" stroke-linecap="round"/>
<path d="M63.0096 74.9904L64.7004 66.5361L83.2998 53.0093L93.445 63.1544L103.59 53.0093L122.189 66.5361L123.88 74.9904" stroke="white" stroke-width="4" stroke-linecap="round" stroke-linejoin="round"/>
<path d="M74.1526 28.5338C74.1526 28.5338 78.9078 27.9932 80.9757 26.5381C82.5237 25.4488 84.3873 20.5508 84.3873 20.5508C84.3873 20.5508 94.622 27.536 100.763 25.0412" stroke="white" stroke-width="3"/>
<path d="M98.767 24.5425L102.758 29.8645L110.742 31.8603" stroke="white" stroke-width="3"/>
<g clip-path="url(#clip0_1303_4)">
<path d="M55.902 45.7485C57.789 44.0807 59.2855 42.0989 60.3055 39.9169C61.3254 37.7349 61.8487 35.3957 61.8454 33.0339C61.8454 23.1035 52.7604 15.0522 41.5551 15.0522C30.3498 15.0522 21.2649 23.1035 21.2649 33.0339C21.2649 37.9999 23.5357 42.4953 27.2082 45.7485" stroke="white" stroke-width="4" stroke-linecap="round"/>
<path d="M11.1197 74.9909L12.8106 67.4985L31.41 55.5107L41.5551 64.5016L51.7002 55.5107L70.2996 67.4985L71.9905 74.9909" stroke="white" stroke-width="4" stroke-linecap="round" stroke-linejoin="round"/>
<path d="M22.9439 40.5364C22.9659 34.3776 24.0971 29.8777 26.3375 27.0396C29.6989 22.7824 32.0644 23.0956 33.7857 23.758C35.5087 24.4218 36.5215 28.7539 39.3976 30.0036C42.2721 31.2518 49.634 31.4062 52.1551 32.9091C54.6745 34.4106 60.4403 37.2053 59.0031 41.9764" stroke="white" stroke-width="4"/>
<path d="M51.3644 8.57631C51.3644 10.1626 50.4558 11.7472 48.687 12.9957C46.9221 14.2415 44.4054 15.0594 41.5551 15.0594C38.7048 15.0594 36.1881 14.2415 34.4232 12.9957C32.6545 11.7472 31.7458 10.1626 31.7458 8.57631C31.7458 6.98999 32.6545 5.40544 34.4232 4.1569C36.1881 2.91113 38.7048 2.09326 41.5551 2.09326C44.4054 2.09326 46.9221 2.91113 48.687 4.1569C50.4558 5.40544 51.3644 6.98999 51.3644 8.57631Z" stroke="white" stroke-width="3"/>
</g>
<defs>
<clipPath id="clip0_1303_4">
<rect width="81.161" height="81.161" fill="white" transform="translate(0.974579 0.593262)"/>
</clipPath>
</defs>
</svg>
